<?xml version="1.0" standalone="no"?>
<!DOCTYPE svg PUBLIC "-//W3C//DTD SVG 20010904//EN"
 "http://www.w3.org/TR/2001/REC-SVG-20010904/DTD/svg10.dtd">
<svg version="1.0" xmlns="http://www.w3.org/2000/svg"
 width="700.000000pt" height="700.000000pt" viewBox="0 0 700.000000 700.000000"
 preserveAspectRatio="xMidYMid meet">
<metadata>
Created by potrace 1.11, written by Peter Selinger 2001-2013
</metadata>
<g transform="translate(0.000000,700.000000) scale(0.100000,-0.100000)"
fill="#000000" stroke="none">
<path d="M98 6993 c-38 -6 -84 -55 -91 -95 -3 -18 -5 -1558 -4 -3423 2 -3215
3 -3391 20 -3416 37 -55 23 -54 638 -54 561 0 568 0 596 21 59 44 55 -191 55
3474 0 3666 4 3430 -55 3474 -28 21 -37 21 -580 22 -304 1 -564 -1 -579 -3z"/>
<path d="M1976 6985 c-44 -16 -51 -24 -68 -80 -9 -30 -12 -861 -12 -3375 -1
-1834 2 -3364 6 -3400 9 -73 31 -104 87 -120 21 -6 249 -9 580 -7 607 2 593 1
622 69 21 49 21 6807 0 6856 -29 68 -15 67 -626 69 -447 2 -557 -1 -589 -12z"/>
<path d="M3877 6985 c-45 -15 -69 -45 -79 -95 -4 -19 -7 -1547 -7 -3396 -1
-3024 1 -3365 15 -3407 29 -86 -5 -82 619 -84 340 -2 564 1 585 7 55 16 79 47
87 115 10 76 9 6715 -1 6771 -9 52 -42 84 -98 95 -24 4 -277 8 -563 8 -413 0
-528 -3 -558 -14z"/>
<path d="M5782 6990 c-45 -11 -70 -36 -83 -83 -7 -28 -11 -1039 -10 -3411 0
-2761 2 -3378 13 -3410 7 -22 26 -49 41 -60 28 -21 35 -21 600 -21 l572 0 32
23 c23 16 35 35 41 65 6 26 9 1324 8 3432 -1 3140 -2 3392 -18 3413 -41 59
-14 57 -613 58 -302 1 -565 -2 -583 -6z"/>
</g>
</svg>
